<?xml version="1.0" standalone="no"?>
<!DOCTYPE svg PUBLIC "-//W3C//DTD SVG 20010904//EN"
 "http://www.w3.org/TR/2001/REC-SVG-20010904/DTD/svg10.dtd">
<svg version="1.0" xmlns="http://www.w3.org/2000/svg"
 width="700.000000pt" height="689.000000pt" viewBox="0 0 700.000000 689.000000"
 preserveAspectRatio="xMidYMid meet">
<metadata>
Created by potrace 1.16, written by Peter Selinger 2001-2019
</metadata>
<g transform="translate(0.000000,689.000000) scale(0.100000,-0.100000)"
fill="#000000" stroke="none">
<path d="M2355 6366 c-170 -36 -230 -54 -400 -121 -177 -69 -223 -92 -400
-201 -172 -106 -223 -144 -367 -271 -237 -209 -414 -423 -570 -687 -98 -167
-123 -218 -195 -408 -77 -205 -84 -229 -122 -440 -36 -199 -41 -247 -46 -443
l-6 -220 40 -215 c33 -175 54 -253 112 -421 67 -195 76 -215 179 -383 86 -141
136 -210 246 -337 135 -155 145 -164 354 -319 118 -87 288 -216 378 -287 156
-124 173 -134 355 -220 176 -82 211 -94 419 -149 l228 -59 -63 -65 c-52 -54
-178 -188 -404 -430 l-32 -35 164 -130 c144 -114 171 -131 213 -137 64 -9 127
-10 119 -1 -4 3 7 15 23 25 17 10 34 26 37 35 4 9 39 47 79 86 41 38 72 72 71
76 -1 4 26 34 60 66 34 33 553 584 1153 1225 1065 1137 1090 1165 1058 1168
-18 1 -353 -18 -743 -43 -391 -25 -730 -45 -753 -45 l-42 0 0 338 0 337 1600
100 1600 100 0 50 0 50 -162 128 c-159 125 -162 127 -212 127 -28 0 -222 -11
-431 -25 -209 -14 -388 -25 -397 -25 -13 0 -18 8 -18 32 0 17 -25 128 -56 246
-53 208 -59 222 -155 414 -83 167 -119 225 -223 366 -106 142 -147 188 -278
309 -198 183 -503 414 -732 554 -159 98 -204 121 -376 186 -180 68 -211 77
-395 108 -194 34 -208 35 -455 34 l-255 -1 -200 -42z"/>
<path d="M5000 1915 c0 -3 45 -76 100 -163 l100 -157 -328 -21 -327 -22 -123
-128 c-68 -71 -150 -159 -184 -196 l-60 -68 58 1 c33 0 370 19 751 42 l692 42
-90 139 c-49 76 -88 140 -87 142 2 2 312 -118 688 -266 377 -148 688 -270 693
-270 4 0 7 15 7 33 0 30 -12 42 -165 162 l-165 130 -777 302 c-849 330 -783
305 -783 298z"/>
<path d="M5256 550 c-142 -10 -262 -22 -266 -27 -21 -21 -5 -39 144 -157 171
-135 162 -131 275 -119 44 4 65 11 69 22 3 9 8 18 12 21 9 7 170 266 170 274
0 9 -119 5 -404 -14z"/>
</g>
</svg>
